<?xml version="1.0" standalone="no"?>
<!DOCTYPE svg PUBLIC "-//W3C//DTD SVG 20010904//EN"
 "http://www.w3.org/TR/2001/REC-SVG-20010904/DTD/svg10.dtd">
<svg version="1.0" xmlns="http://www.w3.org/2000/svg"
 width="512.000000pt" height="512.000000pt" viewBox="0 0 512.000000 512.000000"
 preserveAspectRatio="xMidYMid meet">

<g transform="translate(0.000000,512.000000) scale(0.100000,-0.100000)"
fill="#000000" stroke="none">
<path d="M3831 5063 c-15 -16 -101 -156 -190 -314 -179 -316 -185 -336 -133
-388 15 -15 66 -49 115 -75 48 -26 87 -51 87 -55 0 -5 -273 -487 -607 -1072
-461 -810 -607 -1074 -611 -1105 -4 -35 0 -46 24 -72 16 -16 157 -102 313
-191 316 -179 335 -185 390 -134 16 16 300 505 631 1088 332 583 604 1061 605
1063 1 1 47 -23 101 -55 121 -70 169 -77 212 -28 41 46 343 580 348 617 11 69
1 76 -610 424 -625 356 -617 352 -675 297z m294 -326 c77 -43 150 -86 162 -93
l23 -14 -30 -54 c-47 -82 -39 -150 20 -181 66 -34 114 -14 161 71 17 30 34 54
37 54 14 0 362 -203 362 -211 0 -15 -194 -351 -206 -356 -13 -5 -926 516 -920
525 2 4 43 77 91 162 48 85 94 165 102 178 16 26 -3 34 198 -81z m138 -817 c4
-3 -4 -27 -18 -53 -24 -43 -28 -45 -52 -36 -56 21 -133 -36 -133 -99 0 -28 25
-79 42 -84 9 -3 6 -18 -12 -52 -24 -45 -26 -47 -62 -41 -49 9 -95 -16 -115
-62 -17 -42 -11 -78 20 -111 l21 -23 -24 -44 c-23 -43 -26 -44 -61 -39 -101
17 -162 -101 -92 -178 16 -18 16 -21 -6 -62 -24 -43 -24 -43 -72 -38 -43 4
-51 1 -79 -26 -25 -25 -30 -38 -30 -77 0 -37 5 -51 24 -68 l25 -22 -26 -46
-26 -46 -48 5 c-43 4 -51 1 -79 -26 -39 -40 -42 -97 -6 -139 l25 -29 -25 -41
c-23 -39 -27 -41 -67 -40 -98 4 -154 -98 -93 -170 l25 -29 -25 -42 c-24 -40
-27 -42 -62 -36 -96 15 -161 -110 -91 -175 l20 -19 -20 -40 c-11 -22 -24 -43
-29 -46 -7 -4 -260 134 -350 190 l-23 15 26 42 c23 38 28 42 61 39 102 -10
162 92 98 167 l-26 31 25 43 c24 41 27 43 67 39 53 -5 89 14 107 55 19 46 16
65 -12 108 l-26 37 26 44 c23 39 28 42 49 34 48 -18 109 14 126 66 14 40 -1
98 -28 113 -16 9 -15 14 7 55 23 44 25 46 61 40 102 -17 163 100 93 178 -16
18 -16 21 6 64 23 42 25 44 61 38 42 -7 93 14 110 45 17 34 12 96 -12 126
l-21 27 21 43 c20 42 21 43 64 38 59 -6 104 23 114 71 8 45 -1 80 -26 104
l-21 19 25 43 c24 43 25 44 74 41 67 -3 102 26 109 90 4 38 1 50 -21 76 l-26
31 25 45 26 45 177 -100 c97 -56 180 -104 185 -108z"/>
<path d="M1481 4533 c-16 -16 -108 -163 -204 -328 -218 -375 -210 -360 -204
-404 6 -45 365 -664 408 -703 l29 -28 410 0 410 0 29 28 c43 39 402 658 408
703 6 44 14 29 -204 404 -96 165 -188 312 -204 328 l-29 27 -410 0 -410 0 -29
-27z m905 -448 c84 -143 153 -264 153 -270 0 -5 -68 -127 -152 -270 l-153
-260 -314 0 -314 0 -153 260 c-84 143 -152 264 -153 268 0 6 249 439 296 515
l15 22 311 -2 312 -3 152 -260z"/>
<path d="M1853 4240 c-223 -33 -383 -251 -352 -480 48 -343 471 -483 719 -238
288 287 38 777 -367 718z m181 -240 c60 -41 90 -93 94 -164 15 -234 -291 -313
-399 -104 -22 44 -25 124 -5 171 16 40 70 95 111 114 49 22 154 13 199 -17z"/>
<path d="M822 2908 c-25 -12 -799 -1046 -816 -1089 -6 -17 -6 -39 0 -60 8 -29
44 -60 239 -207 359 -269 361 -270 424 -238 15 8 56 53 90 100 34 47 65 88 70
90 5 3 455 -327 1001 -734 1072 -799 1020 -765 1088 -724 22 13 306 383 404
527 32 46 36 90 10 128 -9 15 -459 356 -999 759 -541 402 -983 735 -983 739 0
4 29 46 65 95 119 162 124 152 -195 394 -140 106 -272 202 -292 212 -41 22
-71 24 -106 8z m240 -369 c90 -66 163 -125 163 -131 0 -18 -619 -848 -631
-845 -25 5 -333 243 -329 254 2 7 59 85 125 173 l121 160 56 -40 c42 -30 66
-40 94 -40 48 0 87 32 98 81 12 52 -7 89 -68 133 -31 23 -48 42 -44 49 15 26
244 327 248 327 2 0 78 -54 167 -121z m199 -546 c27 -20 37 -33 32 -43 -15
-30 -8 -98 11 -119 40 -44 104 -48 157 -9 13 9 23 6 53 -17 35 -27 36 -29 30
-79 -6 -46 -3 -55 20 -84 37 -43 84 -51 132 -23 l36 22 37 -27 c20 -15 37 -28
39 -30 2 -1 -1 -19 -7 -39 -13 -49 6 -98 48 -119 40 -21 69 -20 109 4 l33 21
39 -31 c35 -28 38 -33 28 -55 -16 -36 -2 -90 33 -119 37 -31 82 -34 124 -7
l30 18 42 -30 c35 -24 40 -33 33 -48 -13 -24 -13 -65 1 -92 30 -58 103 -75
153 -36 l26 21 40 -32 c26 -21 39 -38 36 -49 -2 -9 -7 -26 -11 -38 -7 -27 16
-76 47 -97 31 -22 91 -20 119 3 23 19 24 19 67 -12 30 -21 41 -36 36 -46 -22
-53 -16 -85 20 -124 31 -34 101 -38 137 -8 24 19 24 19 62 -11 21 -17 36 -36
33 -44 -11 -28 -239 -324 -250 -324 -6 0 -26 13 -44 28 -31 25 -32 30 -22 56
34 91 -73 171 -160 120 -27 -16 -29 -16 -69 12 -28 20 -39 34 -34 44 4 8 7 34
7 57 1 50 -22 79 -73 93 -29 8 -43 6 -78 -11 l-42 -20 -35 26 c-33 25 -34 28
-29 78 5 47 2 56 -21 84 -36 43 -76 50 -128 24 l-42 -20 -35 26 c-20 15 -38
28 -40 29 -2 2 2 17 9 33 17 42 -2 97 -44 122 -40 24 -62 24 -109 -1 l-38 -21
-39 31 c-35 28 -38 33 -28 55 17 37 2 90 -34 120 -26 22 -39 26 -71 22 -21 -3
-47 -13 -57 -22 -18 -16 -21 -16 -59 11 -40 29 -40 29 -34 80 4 38 1 57 -11
77 -33 49 -114 60 -157 21 -17 -15 -21 -14 -59 16 -30 24 -39 37 -33 49 4 9 7
33 7 55 0 31 -7 44 -33 68 -30 27 -39 30 -78 25 -25 -3 -52 -12 -61 -20 -14
-14 -19 -13 -58 15 -28 20 -41 35 -35 42 5 6 61 82 125 169 64 86 119 157 122
157 3 0 23 -12 45 -27z"/>
<path d="M3839 1983 c-18 -11 -93 -131 -222 -352 -107 -185 -198 -346 -201
-357 -4 -12 -2 -34 4 -50 6 -16 98 -177 203 -358 140 -239 199 -332 219 -342
22 -11 104 -14 432 -14 l405 0 25 23 c14 12 114 173 221 357 175 298 196 339
192 371 -7 53 -383 696 -422 720 -28 18 -56 19 -430 19 -353 -1 -403 -2 -426
-17z m892 -455 c84 -144 152 -268 152 -274 0 -6 -68 -129 -152 -273 l-153
-261 -311 0 -312 0 -154 264 c-85 145 -153 268 -153 273 1 4 71 126 154 270
l153 263 311 0 312 0 153 -262z"/>
<path d="M4220 1683 c-195 -30 -337 -163 -371 -348 -47 -256 151 -495 412
-497 329 -2 535 347 374 634 -34 61 -124 144 -187 173 -46 21 -164 47 -193 44
-5 -1 -21 -3 -35 -6z m128 -229 c223 -93 140 -422 -102 -402 -213 18 -262 317
-66 402 46 20 121 20 168 0z"/>
</g>
</svg>
