<?xml version="1.0" standalone="no"?>
<!DOCTYPE svg PUBLIC "-//W3C//DTD SVG 20010904//EN"
 "http://www.w3.org/TR/2001/REC-SVG-20010904/DTD/svg10.dtd">
<svg version="1.0" xmlns="http://www.w3.org/2000/svg"
 width="512.000000pt" height="512.000000pt" viewBox="0 0 512.000000 512.000000"
 preserveAspectRatio="xMidYMid meet">

<g transform="translate(0.000000,512.000000) scale(0.100000,-0.100000)"
fill="#000000" stroke="none">
<path d="M1130 5111 c-68 -21 -149 -90 -165 -140 -6 -21 -7 -21 -486 -21
l-479 0 0 -600 0 -600 478 0 479 0 11 -24 c19 -43 71 -94 120 -116 119 -57
281 0 335 117 l10 23 1107 0 1106 0 52 -26 c105 -52 147 -138 140 -288 -5
-103 -22 -149 -75 -202 -74 -75 37 -68 -1283 -75 -1261 -5 -1216 -4 -1406 -53
-265 -69 -531 -236 -717 -451 -277 -320 -396 -727 -346 -1183 27 -248 99 -448
238 -656 199 -301 518 -522 871 -605 162 -38 259 -41 1430 -41 l1139 0 6 -21
c11 -33 74 -98 119 -122 57 -30 165 -30 222 0 49 26 98 75 114 114 l12 29 479
0 479 0 0 600 0 600 -478 0 -477 0 -20 36 c-43 79 -124 126 -220 126 -96 1
-191 -58 -228 -139 l-10 -23 -1107 0 -1106 0 -52 26 c-105 52 -146 137 -140
287 4 103 21 149 75 203 74 75 -37 68 1283 75 1260 5 1216 4 1406 53 197 51
408 164 571 305 278 240 452 574 492 943 35 317 -17 637 -144 889 -51 101
-160 253 -245 342 -246 259 -556 411 -909 447 -65 6 -524 10 -1241 10 l-1139
0 -6 21 c-12 37 -78 101 -130 125 -51 24 -116 30 -165 15z m121 -190 l29 -29
0 -542 0 -541 -25 -24 c-16 -17 -35 -25 -60 -25 -25 0 -44 8 -60 25 l-25 24 0
541 0 542 29 29 c18 17 40 29 56 29 16 0 38 -12 56 -29z m-311 -566 l0 -425
-385 0 -385 0 0 425 0 425 385 0 385 0 0 -425z m2970 402 c575 -129 969 -562
1031 -1137 14 -122 6 -331 -15 -440 -102 -523 -504 -924 -1031 -1027 -82 -16
-200 -18 -1275 -23 -1104 -5 -1188 -6 -1230 -23 -134 -53 -233 -166 -265 -301
-17 -71 -19 -191 -5 -267 33 -175 186 -316 368 -340 37 -4 543 -8 1125 -9
l1057 0 0 -425 0 -425 -1125 0 c-1158 0 -1247 3 -1400 41 -287 71 -536 236
-716 474 -140 185 -224 400 -250 645 -14 122 -6 331 15 440 89 459 410 828
851 978 198 68 146 66 1455 72 1103 5 1188 6 1230 23 134 52 233 166 265 301
17 71 19 191 5 267 -33 175 -186 316 -368 340 -37 4 -543 8 -1124 9 l-1058 0
0 425 0 426 1193 -4 c1069 -3 1200 -5 1267 -20z m75 -3422 l25 -24 0 -541 0
-542 -29 -29 c-38 -38 -74 -38 -112 0 l-29 29 0 542 0 541 25 24 c16 17 35 25
60 25 25 0 44 -8 60 -25z m965 -570 l0 -425 -385 0 -385 0 0 425 0 425 385 0
385 0 0 -425z"/>
</g>
</svg>
