<?xml version="1.0" standalone="no"?>
<!DOCTYPE svg PUBLIC "-//W3C//DTD SVG 20010904//EN"
 "http://www.w3.org/TR/2001/REC-SVG-20010904/DTD/svg10.dtd">
<svg version="1.0" xmlns="http://www.w3.org/2000/svg"
 width="512.000000pt" height="512.000000pt" viewBox="0 0 512.000000 512.000000"
 preserveAspectRatio="xMidYMid meet">

<g transform="translate(0.000000,512.000000) scale(0.100000,-0.100000)"
fill="#000000" stroke="none">
<path d="M617 5106 c-59 -22 -97 -57 -127 -121 -18 -37 -20 -66 -20 -396 l0
-356 -78 -5 c-102 -7 -168 -36 -227 -99 -64 -68 -88 -127 -89 -214 0 -106 51
-206 135 -262 l39 -26 0 -362 c0 -351 1 -363 21 -389 27 -34 79 -36 109 -4 19
21 20 33 20 375 l0 353 776 0 775 0 -3 -387 c-4 -438 -4 -440 -91 -608 -55
-107 -190 -244 -297 -304 -250 -138 -543 -134 -787 10 -80 48 -194 158 -244
237 -23 37 -52 77 -63 89 -24 28 -66 30 -97 4 -38 -30 -31 -75 25 -161 85
-131 187 -230 317 -306 l76 -45 6 -113 c8 -152 31 -212 108 -288 l58 -56 4
-464 c4 -524 2 -508 87 -684 110 -228 300 -396 534 -475 140 -47 200 -51 721
-46 449 3 484 5 550 24 155 46 237 87 351 177 145 113 251 271 311 463 l28 88
5 1225 c5 972 8 1233 19 1265 59 180 214 317 391 345 36 5 254 10 493 10 402
0 430 1 465 19 167 85 171 306 7 394 -39 21 -52 22 -470 25 -488 4 -573 -3
-718 -52 -139 -48 -244 -114 -352 -221 -147 -148 -240 -335 -265 -535 -6 -54
-10 -494 -10 -1230 0 -928 -3 -1154 -14 -1195 -22 -84 -57 -145 -119 -212 -67
-71 -165 -126 -256 -143 -70 -13 -862 -13 -932 0 -126 23 -265 123 -329 235
-58 103 -60 119 -60 578 l0 419 45 40 c26 23 57 65 76 104 29 58 32 75 37 184
l5 120 56 31 c239 135 409 364 462 623 16 79 19 138 19 466 l0 375 48 35 c123
92 162 244 98 385 -51 110 -150 173 -287 182 l-79 6 0 118 c0 115 -1 118 -26
138 -35 27 -57 26 -91 -3 -27 -24 -28 -27 -31 -140 l-4 -116 -74 0 -74 0 0
335 c0 275 3 341 15 364 24 47 78 56 112 19 17 -19 22 -39 25 -111 3 -79 6
-91 27 -108 31 -25 76 -24 102 2 19 19 20 30 17 134 -3 108 -4 115 -34 157
-41 56 -119 98 -183 98 -99 0 -199 -79 -221 -176 -5 -21 -10 -191 -10 -376 l0
-338 -255 0 -254 0 -3 363 c-3 352 -4 363 -25 404 -54 101 -170 146 -276 109z
m124 -155 l24 -19 3 -351 3 -351 -76 0 -75 0 0 349 0 350 26 20 c33 26 65 27
95 2z m1271 -881 c52 -15 105 -77 113 -133 9 -58 -19 -124 -66 -158 l-34 -24
-825 -3 c-454 -2 -840 0 -858 3 -43 8 -98 65 -112 115 -21 77 19 157 94 191
39 18 84 19 846 19 514 0 818 -4 842 -10z m2841 -189 c13 -5 30 -23 37 -41 12
-28 11 -34 -7 -58 l-20 -27 -469 -5 -469 -6 -82 -27 c-195 -65 -344 -214 -411
-411 l-27 -81 -5 -1225 c-5 -1116 -7 -1230 -23 -1281 -67 -222 -216 -398 -417
-493 -151 -71 -148 -71 -705 -71 -566 0 -557 -1 -720 80 -205 101 -349 279
-405 499 -18 73 -20 112 -20 488 l0 408 70 0 70 0 0 -397 c0 -451 3 -473 72
-606 73 -139 199 -247 360 -305 l73 -27 459 -3 c392 -3 470 -1 540 13 221 44
405 207 479 425 l22 65 5 1220 c5 1219 5 1220 27 1298 85 300 335 522 638 566
81 12 897 13 928 2z m-3678 -1826 c66 0 146 4 178 9 l57 8 0 -51 c0 -171 -93
-254 -266 -238 -132 13 -189 73 -201 212 l-6 78 59 -9 c32 -5 113 -9 179 -9z"/>
<path d="M1263 3428 c-28 -32 -283 -442 -296 -477 -9 -23 -7 -34 7 -55 23 -36
54 -46 136 -46 l68 0 -109 -177 c-60 -97 -109 -187 -109 -200 0 -32 43 -73 75
-73 14 0 36 10 48 23 42 42 307 483 307 511 0 50 -30 66 -125 66 -50 0 -85 4
-85 10 0 5 47 86 105 178 61 97 105 179 105 193 0 60 -87 91 -127 47z"/>
</g>
</svg>
