<?xml version="1.0" standalone="no"?>
<!DOCTYPE svg PUBLIC "-//W3C//DTD SVG 20010904//EN"
 "http://www.w3.org/TR/2001/REC-SVG-20010904/DTD/svg10.dtd">
<svg version="1.0" xmlns="http://www.w3.org/2000/svg"
 width="512.000000pt" height="512.000000pt" viewBox="0 0 512.000000 512.000000"
 preserveAspectRatio="xMidYMid meet">

<g transform="translate(0.000000,512.000000) scale(0.100000,-0.100000)"
fill="#000000" stroke="none">
<path d="M825 4935 l-25 -24 0 -576 0 -575 -320 0 -320 0 0 -480 0 -480 56 0
c87 0 133 -18 189 -75 102 -101 102 -229 0 -330 -56 -57 -102 -75 -189 -75
l-56 0 0 -480 0 -480 320 0 320 0 0 -575 0 -576 25 -24 24 -25 351 0 351 0 24
25 c25 24 25 25 25 230 l0 205 185 370 185 370 590 0 590 0 185 -370 185 -370
0 -205 c0 -205 0 -206 25 -230 l24 -25 351 0 351 0 24 25 25 24 0 576 0 575
320 0 320 0 0 480 0 480 -56 0 c-87 0 -133 18 -189 75 -102 101 -102 229 0
330 56 57 102 75 189 75 l56 0 0 480 0 480 -320 0 -320 0 0 575 0 576 -25 24
-24 25 -351 0 -351 0 -24 -25 c-25 -24 -25 -25 -25 -230 l0 -205 -185 -370
-185 -370 -590 0 -590 0 -185 370 -185 370 0 205 c0 205 0 206 -25 230 l-24
25 -351 0 -351 0 -24 -25z m615 -2375 l0 -2240 -240 0 -240 0 0 2240 0 2240
240 0 240 0 0 -2240z m2720 0 l0 -2240 -240 0 -240 0 0 2240 0 2240 240 0 240
0 0 -2240z m-2461 1383 l91 -183 -95 0 -95 0 0 187 c0 102 2 184 4 182 2 -2
45 -86 95 -186z m1821 2 l0 -185 -95 0 -95 0 92 185 c51 102 94 185 95 185 2
0 3 -83 3 -185z m-2720 -425 l0 -80 -240 0 -240 0 0 80 0 80 240 0 240 0 0
-80z m2720 0 l0 -80 -960 0 -960 0 0 80 0 80 960 0 960 0 0 -80z m1280 0 l0
-80 -240 0 -240 0 0 80 0 80 240 0 240 0 0 -80z m-4000 -320 l0 -80 -80 0 -80
0 0 -80 0 -80 80 0 80 0 0 -400 0 -400 -80 0 -80 0 0 -80 0 -80 80 0 80 0 0
-80 0 -80 -240 0 -240 0 0 165 c0 133 3 165 14 165 7 0 45 16 83 35 86 43 144
103 186 193 29 61 32 76 32 162 0 86 -3 101 -32 162 -42 90 -100 150 -186 193
-38 19 -76 35 -83 35 -11 0 -14 32 -14 165 l0 165 240 0 240 0 0 -80z m2720 0
l0 -80 -136 0 c-78 0 -154 -5 -178 -12 -52 -16 -141 -102 -151 -146 -8 -40
-21 -41 -30 -2 -4 16 -26 52 -51 79 -69 77 -88 81 -412 81 -186 0 -288 -4
-316 -12 -52 -16 -141 -102 -151 -146 -8 -40 -21 -41 -30 -2 -4 16 -26 52 -51
79 -62 69 -103 81 -276 81 l-138 0 0 80 0 80 960 0 960 0 0 -80z m1280 -85 c0
-133 -3 -165 -14 -165 -7 0 -45 -16 -83 -35 -86 -43 -144 -103 -186 -193 -29
-61 -32 -76 -32 -162 0 -86 3 -101 32 -162 42 -90 100 -150 186 -193 38 -19
76 -35 83 -35 11 0 14 -32 14 -165 l0 -165 -240 0 -240 0 0 80 0 80 80 0 80 0
0 80 0 80 -80 0 -80 0 0 400 0 400 80 0 80 0 0 80 0 80 -80 0 -80 0 0 80 0 80
240 0 240 0 0 -165z m-2905 -180 c16 -15 25 -36 25 -55 0 -19 -9 -40 -25 -55
-23 -24 -29 -25 -160 -25 l-135 0 0 80 0 80 135 0 c131 0 137 -1 160 -25z
m960 0 c16 -15 25 -36 25 -55 0 -19 -9 -40 -25 -55 l-24 -25 -271 0 -271 0
-24 25 c-16 15 -25 36 -25 55 0 19 9 40 25 55 l24 25 271 0 271 0 24 -25z
m665 -55 l0 -80 -135 0 c-131 0 -137 1 -160 25 -16 15 -25 36 -25 55 0 19 9
40 25 55 23 24 29 25 160 25 l135 0 0 -80z m-1425 -82 c10 -44 99 -130 151
-146 28 -8 130 -12 316 -12 324 0 343 4 412 81 25 27 47 63 51 79 9 39 22 38
30 -2 10 -44 99 -130 151 -146 24 -7 100 -12 178 -12 l136 0 0 -80 0 -80 -136
0 c-78 0 -154 -5 -178 -12 -52 -16 -141 -102 -151 -146 -8 -40 -21 -41 -30 -2
-4 16 -26 52 -51 79 -69 77 -88 81 -412 81 -186 0 -288 -4 -316 -12 -52 -16
-141 -102 -151 -146 -9 -41 -21 -41 -30 0 -10 44 -99 130 -151 146 -24 7 -100
12 -178 12 l-136 0 0 80 0 80 136 0 c78 0 154 5 178 12 52 16 141 102 151 146
3 18 10 32 15 32 5 0 12 -14 15 -32z m-200 -503 c16 -15 25 -36 25 -55 0 -19
-9 -40 -25 -55 -23 -24 -29 -25 -160 -25 l-135 0 0 80 0 80 135 0 c131 0 137
-1 160 -25z m960 0 c16 -15 25 -36 25 -55 0 -19 -9 -40 -25 -55 l-24 -25 -271
0 -271 0 -24 25 c-16 15 -25 36 -25 55 0 19 9 40 25 55 l24 25 271 0 271 0 24
-25z m665 -55 l0 -80 -135 0 c-131 0 -137 1 -160 25 -16 15 -25 36 -25 55 0
19 9 40 25 55 23 24 29 25 160 25 l135 0 0 -80z m-1425 -82 c10 -44 99 -130
151 -146 28 -8 130 -12 316 -12 324 0 343 4 412 81 25 27 47 63 51 79 9 39 22
38 30 -2 10 -44 99 -130 151 -146 24 -7 100 -12 178 -12 l136 0 0 -80 0 -80
-960 0 -960 0 0 80 0 80 138 0 c173 0 214 12 276 81 25 27 47 63 51 79 9 39
22 38 30 -2z m-1295 -558 l0 -80 -240 0 -240 0 0 80 0 80 240 0 240 0 0 -80z
m2720 0 l0 -80 -960 0 -960 0 0 80 0 80 960 0 960 0 0 -80z m1280 0 l0 -80
-240 0 -240 0 0 80 0 80 240 0 240 0 0 -80z m-3101 -422 c-50 -101 -93 -185
-95 -187 -2 -2 -4 80 -4 182 l0 187 95 0 95 0 -91 -182z m1821 -5 c0 -102 -2
-184 -4 -182 -2 2 -45 86 -95 187 l-91 182 95 0 95 0 0 -187z"/>
<path d="M1120 4560 l0 -80 80 0 80 0 0 80 0 80 -80 0 -80 0 0 -80z"/>
<path d="M1120 4240 l0 -80 80 0 80 0 0 80 0 80 -80 0 -80 0 0 -80z"/>
<path d="M1120 3760 l0 -80 80 0 80 0 0 80 0 80 -80 0 -80 0 0 -80z"/>
<path d="M1120 3440 l0 -80 80 0 80 0 0 80 0 80 -80 0 -80 0 0 -80z"/>
<path d="M1120 2960 l0 -80 80 0 80 0 0 80 0 80 -80 0 -80 0 0 -80z"/>
<path d="M1120 2640 l0 -80 80 0 80 0 0 80 0 80 -80 0 -80 0 0 -80z"/>
<path d="M1120 1680 l0 -80 80 0 80 0 0 80 0 80 -80 0 -80 0 0 -80z"/>
<path d="M1120 960 l0 -480 80 0 80 0 0 480 0 480 -80 0 -80 0 0 -480z"/>
<path d="M3840 4560 l0 -80 80 0 80 0 0 80 0 80 -80 0 -80 0 0 -80z"/>
<path d="M3840 4240 l0 -80 80 0 80 0 0 80 0 80 -80 0 -80 0 0 -80z"/>
<path d="M3840 3760 l0 -80 80 0 80 0 0 80 0 80 -80 0 -80 0 0 -80z"/>
<path d="M3840 3440 l0 -80 80 0 80 0 0 80 0 80 -80 0 -80 0 0 -80z"/>
<path d="M3840 2960 l0 -80 80 0 80 0 0 80 0 80 -80 0 -80 0 0 -80z"/>
<path d="M3840 2640 l0 -80 80 0 80 0 0 80 0 80 -80 0 -80 0 0 -80z"/>
<path d="M3840 1680 l0 -80 80 0 80 0 0 80 0 80 -80 0 -80 0 0 -80z"/>
<path d="M3840 960 l0 -480 80 0 80 0 0 480 0 480 -80 0 -80 0 0 -480z"/>
</g>
</svg>
